<?xml version="1.0" encoding="UTF-8"?> <svg xmlns="http://www.w3.org/2000/svg" xmlns:xlink="http://www.w3.org/1999/xlink" viewBox="0 0 400 245"><defs><style>.cls-1{isolation:isolate;}.cls-2,.cls-3,.cls-4,.cls-6,.cls-7{mix-blend-mode:multiply;}.cls-2{fill:url(#新建渐变色板_6);}.cls-3{fill:url(#linear-gradient);}.cls-4{fill:url(#linear-gradient-2);}.cls-5{fill:url(#linear-gradient-3);}.cls-6{fill:url(#linear-gradient-4);}.cls-7{fill:url(#linear-gradient-5);}.cls-8{fill:url(#linear-gradient-6);}.cls-9{fill:#1f2874;}</style><linearGradient id="新建渐变色板_6" x1="13.51932" y1="160.01626" x2="107.25572" y2="72.40632" gradientUnits="userSpaceOnUse"><stop offset="0" stop-color="#00a1e9"></stop><stop offset="1" stop-color="#005bac"></stop></linearGradient><linearGradient id="linear-gradient" x1="54.42896" y1="162.22998" x2="131.11793" y2="111.10433" gradientUnits="userSpaceOnUse"><stop offset="0" stop-color="#e4007f"></stop><stop offset="1" stop-color="#6b1785"></stop></linearGradient><linearGradient id="linear-gradient-2" x1="120.35649" y1="88.61411" x2="37.70105" y2="160.1928" gradientUnits="userSpaceOnUse"><stop offset="0" stop-color="#004ea2"></stop><stop offset="1" stop-color="#00a1e9"></stop></linearGradient><linearGradient id="linear-gradient-3" x1="46.98407" y1="151.0596" x2="123.67343" y2="99.93368" gradientUnits="userSpaceOnUse"><stop offset="0" stop-color="#b60081"></stop><stop offset="1" stop-color="#361f87"></stop></linearGradient><linearGradient id="linear-gradient-4" x1="11.85021" y1="176.67592" x2="131.00191" y2="176.67592" gradientUnits="userSpaceOnUse"><stop offset="0" stop-color="#fdd000"></stop><stop offset="0.06616" stop-color="#fbc600"></stop><stop offset="0.50663" stop-color="#f28903"></stop><stop offset="0.83021" stop-color="#ec6305"></stop><stop offset="1" stop-color="#ea5506"></stop></linearGradient><linearGradient id="linear-gradient-5" x1="57.91234" y1="167.45567" x2="134.60064" y2="116.33045" gradientUnits="userSpaceOnUse"><stop offset="0" stop-color="#b60081"></stop><stop offset="1" stop-color="#182a88"></stop></linearGradient><linearGradient id="linear-gradient-6" x1="11.85021" y1="165.27135" x2="131.00069" y2="165.27135" gradientUnits="userSpaceOnUse"><stop offset="0" stop-color="#f29100"></stop><stop offset="1" stop-color="#e50054"></stop></linearGradient></defs><title>eastday_东方网</title><g class="cls-1"><g id="图层_1" data-name="图层 1"><path class="cls-2" d="M103.04011,91.82265l12.56739,15.585c6.9942-8.9712,12.15381-16.1773,14.4712-19.3731a2.98216,2.98216,0,0,0-.2168-3.7915L95.96981,40.14735c-15.5581,38.8653-46.2754,111.6216-74.2422,112.7896-12.288.5137-16.1337-8.8828-16.1337-8.8828a29.86426,29.86426,0,0,0,2.6401,17.6543c-.0332-.1094-.065-.209-.0879-.2891C31.02111,185.91345,68.68811,150.73385,103.04011,91.82265Z"></path><path class="cls-3" d="M132.7501,128.66935l-17.1426-21.2617c-22.59709,28.9629-64.38669,76.3652-91.82709,66.9805-8.3272-2.8477-12.979-7.6915-15.5464-12.6797a42.74,42.74,0,0,0,3.6162,8.1816c12.1206,10.7656,33.0732,28.7051,93.4233-29.8008l10.40339,12.627a242.6959,242.6959,0,0,0,17.538-19.336C134.6856,131.39785,133.6505,129.83735,132.7501,128.66935Z"></path><path class="cls-4" d="M23.78041,174.38815c27.4404,9.3847,69.23-38.0176,91.82709-66.9805l-12.56739-15.585c-34.352,58.9112-72.019,94.0908-94.894,69.5967.0229.0801.0547.1797.0879.2891C10.80141,166.69665,15.45321,171.54045,23.78041,174.38815Z"></path><path class="cls-5" d="M23.78041,174.38815c27.4404,9.3847,69.23-38.0176,91.82709-66.9805l-12.56739-15.585c-34.352,58.9112-72.019,94.0908-94.894,69.5967.0229.0801.0547.1797.0879.2891C10.80141,166.69665,15.45321,171.54045,23.78041,174.38815Z"></path><path class="cls-6" d="M38.93471,189.71815c-14.7671-2.7597-22.9195-12.4804-27.0845-19.8281.5771,1.3828,8.5439,22.8652,32.9209,28.7578,38.5122,9.3125,75.80569-16.7187,85.23139-23.9668,1.3335-1.1562,1.36481-3.0312-.101-4.7051l-14.2246-17.2597h0C96.76871,171.45065,66.75251,194.92135,38.93471,189.71815Z"></path><path class="cls-7" d="M11.85021,169.89005c4.165,7.3477,12.3174,17.0684,27.0845,19.8281,27.8178,5.2032,57.834-18.2675,76.74219-37.0019h0l-10.40339-12.627C44.92341,198.59515,23.97081,180.65565,11.85021,169.89005Z"></path><path class="cls-8" d="M11.85021,169.89005c4.165,7.3477,12.3174,17.0684,27.0845,19.8281,27.8178,5.2032,57.834-18.2675,76.74219-37.0019h0l-10.40339-12.627C44.92341,198.59515,23.97081,180.65565,11.85021,169.89005Z"></path><path class="cls-9" d="M161.0724,177.58925a12.23856,12.23856,0,0,0-7.7002,2.3321,9.57112,9.57112,0,0,0-3.6031,6.5039q-.60269,4.289,2.0069,6.6113,2.59785,2.31735,7.6704,2.3223a27.23165,27.23165,0,0,0,4.5791-.3379,18.66891,18.66891,0,0,0,3.3794-.8711l-.9243-2.4512a15.15594,15.15594,0,0,1-2.6787.7012,20.23155,20.23155,0,0,1-3.4043.2558q-5.77665,0-5.7569-4.7675l14.645-1.5254q.61305-4.35645-1.46239-6.5684Q165.74909,177.5913,161.0724,177.58925Zm3.4443,7.2422-9.9072,1.0977a7.38421,7.38421,0,0,1,1.9853-4.4766,5.52452,5.52452,0,0,1,3.9649-1.4824,4.14873,4.14873,0,0,1,3.2705,1.1777A4.47916,4.47916,0,0,1,164.5167,184.83145Z"></path><path class="cls-9" d="M189.8277,178.97405a11.43047,11.43047,0,0,0-6.1567-1.3848,25.80822,25.80822,0,0,0-4.6284.3789,27.2654,27.2654,0,0,0-3.6558.9239l.9116,2.2226a20.55137,20.55137,0,0,1,2.9541-.7773,17.64436,17.64436,0,0,1,3.1104-.2715,7.04483,7.04483,0,0,1,3.3945.6367,1.96685,1.96685,0,0,1,.89991,2.1934l-.13231.9218a36.36008,36.36008,0,0,0-9.9653,1.8262q-3.6504,1.3857-4.08939,4.5a3.61608,3.61608,0,0,0,1.88769,3.8652q2.2353,1.34775,7.0039,1.3497a32.09338,32.09338,0,0,0,4.9248-.3536,21.08229,21.08229,0,0,0,3.7764-.8867l1.49321-10.6172C191.8551,181.39985,191.2731,179.89205,189.8277,178.97405Zm-4.5503,13.7441a10.09811,10.09811,0,0,1-3.2802.4766,6.48254,6.48254,0,0,1-3.585-.7813,2.25993,2.25993,0,0,1-.936-2.3984,3.74514,3.74514,0,0,1,2.4116-3.084,22.53122,22.53122,0,0,1,6.3789-1.2695Z"></path><path class="cls-9" d="M202.8561,180.75135a4.574,4.574,0,0,1,2.5625-.6523,6.97093,6.97093,0,0,1,2.125.2891,6.28654,6.28654,0,0,1,1.498.664l1.6318-2.2558a9.667,9.667,0,0,0-2.5839-.9063,16.77458,16.77458,0,0,0-3.3663-.3008,10.23952,10.23952,0,0,0-5.6074,1.4492,5.0258,5.0258,0,0,0-2.5693,3.5196,3.41638,3.41638,0,0,0,.7471,2.7558,6.66354,6.66354,0,0,0,3.3886,1.8965,9.4395,9.4395,0,0,1,3.0996,1.291,1.77293,1.77293,0,0,1,.52351,1.6993,2.41249,2.41249,0,0,1-1.253,1.7539,5.16673,5.16673,0,0,1-2.71971.6679,9.77492,9.77492,0,0,1-2.5127-.3086,6.10549,6.10549,0,0,1-1.7617-.7109l-1.748,2.498a9.84733,9.84733,0,0,0,2.6914.8946,18.5422,18.5422,0,0,0,3.6552.3301,12.0629,12.0629,0,0,0,6.3106-1.5098,5.22174,5.22174,0,0,0,2.8144-3.7051,3.474,3.474,0,0,0-.7959-2.8906,7.15973,7.15973,0,0,0-3.4228-1.9395,11.33394,11.33394,0,0,1-3.1797-1.3359,1.59352,1.59352,0,0,1-.6494-1.5918A2.29349,2.29349,0,0,1,202.8561,180.75135Z"></path><path class="cls-9" d="M223.5572,173.03655l-5.4883,1.082-.5332,3.7871h-2.6259l-.3467,2.4825h2.625l-1.4346,10.1992a3.613,3.613,0,0,0,1.1299,3.3047q1.40925,1.34175,4.6875,1.3378a11.8028,11.8028,0,0,0,1.6172-.1093,6.62884,6.62884,0,0,0,1.1445-.2422l.3438-2.4141a6.60975,6.60975,0,0,1-1.291.1582q-2.58705,0-2.2706-2.2265l1.4092-10.0078h3.8477l.3457-2.4825h-3.8438Z"></path><path class="cls-9" d="M244.1471,178.062a16.70106,16.70106,0,0,0-3.4961-.3145,12.57777,12.57777,0,0,0-7.8389,2.3985,9.52851,9.52851,0,0,0-3.7402,6.5351q-.57285,4.0986,1.9902,6.3887,2.565,2.2851,7.7705,2.2891a30.94294,30.94294,0,0,0,4.7715-.3379,17.8429,17.8429,0,0,0,3.627-.9024l3.374-24.0312h-5.3389Zm-2.0264,14.4355a7.61517,7.61517,0,0,1-2.8105.3809q-3.0162,0-4.1788-1.6895a6.59822,6.59822,0,0,1-.7363-4.7324,8.278,8.278,0,0,1,2.1367-4.7695,6.67625,6.67625,0,0,1,4.9922-1.7461,10.97908,10.97908,0,0,1,2.3282.2207Z"></path><path class="cls-9" d="M269.692,178.97405a11.42908,11.42908,0,0,0-6.1572-1.3848,25.87533,25.87533,0,0,0-4.6319.3789,27.05642,27.05642,0,0,0-3.6523.9239l.9141,2.2226a20.36174,20.36174,0,0,1,2.955-.7773,17.55988,17.55988,0,0,1,3.1055-.2715,7.06318,7.06318,0,0,1,3.3965.6367,1.96909,1.96909,0,0,1,.9004,2.1934l-.13279.9218a36.38888,36.38888,0,0,0-9.96881,1.8262q-3.6474,1.3857-4.084,4.5a3.61286,3.61286,0,0,0,1.8809,3.8652q2.247,1.34775,7.0058,1.3497a32.05059,32.05059,0,0,0,4.9268-.3536,21.04251,21.04251,0,0,0,3.7764-.8867l1.4941-10.6172Q271.86585,180.3491,269.692,178.97405Zm-4.5508,13.7441a10.11907,10.11907,0,0,1-3.2793.4766,6.48621,6.48621,0,0,1-3.5859-.7813,2.26177,2.26177,0,0,1-.9365-2.3984,3.745,3.745,0,0,1,2.413-3.084,22.515,22.515,0,0,1,6.378-1.2695Z"></path><path class="cls-9" d="M285.38931,188.99945a12.14966,12.14966,0,0,0-.68751,1.4453c-.1407.3906-.27349.7285-.39849,1.0039-.00781-.1738,0-.4707.01369-.9082a6.46226,6.46226,0,0,0-.1543-1.543l-2.5098-11.0918h-5.6855l5.3808,17.1094-3.2988,5.416h5.0733l13.18261-22.5254-4.97071.0039Z"></path><path class="cls-9" d="M303.3307,191.23965a3.30034,3.30034,0,0,0-2.1543-.6816,4.26109,4.26109,0,0,0-2.3965.6816,2.41541,2.41541,0,0,0-1.1729,1.668,1.68761,1.68761,0,0,0,.7295,1.6543,3.50057,3.50057,0,0,0,2.1817.6679,4.18175,4.18175,0,0,0,2.3476-.6816,2.36954,2.36954,0,0,0,1.1729-1.6406A1.72587,1.72587,0,0,0,303.3307,191.23965Z"></path><path class="cls-9" d="M320.1002,177.58925a11.02135,11.02135,0,0,0-7.04389,2.3516,9.60633,9.60633,0,0,0-3.55771,6.4844q-.59175,4.1952,1.6553,6.5605a8.40424,8.40424,0,0,0,6.4033,2.3731,16.187,16.187,0,0,0,3.4375-.3184,7.34644,7.34644,0,0,0,2.2832-.8594l-.88859-2.3828a5.40771,5.40771,0,0,1-1.459.5879,8.42578,8.42578,0,0,1-1.83991.1738,3.89257,3.89257,0,0,1-3.5058-1.6679,6.44873,6.44873,0,0,1-.6992-4.5293,8.12053,8.12053,0,0,1,1.9082-4.5293,5.3418,5.3418,0,0,1,4.1171-1.6075,6.88411,6.88411,0,0,1,1.80861.2051,5.42,5.42,0,0,1,1.23639.5254l1.4463-2.1933a6.70261,6.70261,0,0,0-2.0245-.8399A13.09909,13.09909,0,0,0,320.1002,177.58925Z"></path><path class="cls-9" d="M338.7311,177.58925a11.30985,11.30985,0,0,0-7.6465,2.4434,10.07582,10.07582,0,0,0-3.40329,6.4551,7.58484,7.58484,0,0,0,1.63959,6.4062q2.1855,2.46675,6.9121,2.4649a11.28353,11.28353,0,0,0,7.6504-2.4512,10.04126,10.04126,0,0,0,3.3975-6.4199,7.68508,7.68508,0,0,0-1.587-6.4668Q343.54365,177.5893,338.7311,177.58925Zm3.2597,8.8672a10.52635,10.52635,0,0,1-1.582,4.5606,4.30217,4.30217,0,0,1-3.8047,1.7011c-1.6914,0-2.7812-.5722-3.2783-1.7168a8.53641,8.53641,0,0,1-.3467-4.5449,10.85422,10.85422,0,0,1,1.6191-4.6758,4.28555,4.28555,0,0,1,3.78911-1.748q2.66893,0,3.34669,1.7207A9.55972,9.55972,0,0,1,341.9908,186.45645Z"></path><path class="cls-9" d="M382.9107,179.09705q-1.83975-1.5087-5.8183-1.5078a17.52519,17.52519,0,0,0-4.4922.5078,13.07177,13.07177,0,0,0-3.3398,1.3672,6.61084,6.61084,0,0,0-2.6719-1.4023,16.66757,16.66757,0,0,0-4.4141-.4727,36.53431,36.53431,0,0,0-4.9863.3008,21.775,21.775,0,0,0-4.0215.9395l-2.2812,16.2109h5.3378l2.04111-14.5273a12.71257,12.71257,0,0,1,3.56439-.4805,5.57069,5.57069,0,0,1,3.1797.7324,1.95407,1.95407,0,0,1,.8535,2.0039l-1.72259,12.2715h5.33389l1.9454-13.8262a7.24912,7.24912,0,0,1,4.0976-1.1816,4.29928,4.29928,0,0,1,2.91211.7851,2.17254,2.17254,0,0,1,.67969,2.0176l-1.7148,12.2051h5.332l1.7148-12.207A3.87535,3.87535,0,0,0,382.9107,179.09705Z"></path><polygon class="cls-9" points="176.404 142.499 163.493 142.499 153.108 162.687 166.019 162.687 176.404 142.499"></polygon><polygon class="cls-9" points="210.87 142.499 215.219 162.687 228.121 162.687 223.776 142.499 210.87 142.499"></polygon><path class="cls-9" d="M189.9234,138.11075l-1.6152,11.4844-.5361,3.8301c-.3194,2.2519-1.69879,3.9062-3.9239,4.041h-4.2993l-.9262,6.3164h8.0527c12.9014,0,13.9248-9.5488,13.9248-9.5488l.6523-4.6387,1.6153-11.4844h28.3437l.7969-5.6562H203.6627l1.47661-10.5044H192.1949l-1.4765,10.5044H174.1329l12.7822-15.9449h47.3316l.7988-5.6596H191.4527l2.5645-3.1993H179.0147l-2.5581,3.1993H160.8395l-.7959,5.6596h11.88771l-12.74611,15.941-.0005.0039h-.003l-.79539,5.6562H189.9234Z"></path><path class="cls-9" d="M358.7877,152.93305l4.251-7.4981,2.1435,7.4981h8.084l-4.8515-16.9785,9.621-16.9722h-8.0839l-4.2481,7.4917-2.1406-7.4917H349.3795l-4.0029,7.062-2.0196-7.062h-8.0849l4.7295,16.5444-9.8672,17.4063h8.08491l4.49219-7.9239,2.2657,7.9239h13.8105Zm-10.6992-17.4043,8.0547-14.2056,4.1855,14.6333-8.0566,14.207Z"></path><path class="cls-9" d="M307.7291,128.11075H262.5572l4.2539-11.2358h48.211l.7929-5.6563H287.05431l.70019-4.9907H275.2604l-.7032,4.9907H242.13731l-.793,5.6563H253.6022l-17.7598,46.9077h13.208l11.3662-30.0176H295.402l-2.43169,17.3027-.30271,2.1465-.1748,1.2344a4.04777,4.04777,0,0,1-3.9922,3.6699h-12.875l-.7969,5.6641h16.8848l.00781-.043c13.30859-.6055,13.86719-8.5156,13.86719-8.5156l.2851-2.0098.3028-2.1465,3.2246-22.957Z"></path><path class="cls-9" d="M394.4576,111.57805l.30671-2.187H321.8404l-.6259,4.4624-7.0206,49.9292H325.402l6.8837-48.979h50.504l-5.627,40.104a3.82459,3.82459,0,0,1-3.7676,3.457H362.6432l-.7618,5.418h12.9375c12.60941,0,13.4512-8.1856,13.4512-8.1856l5.7344-40.7934h0l.1992-1.4102.2539-1.8154Z"></path></g></g></svg> 